ffmpeg started on 2025-05-26 at 18:59:54
Report written to "D:\Convert\FFMetrics\reports\psnr_report-6.txt"
Log level: 32
Command line:
ffmpeg -hide_banner -nostdin -i "G:\\\xc0\xed\xe8\xec\xe5\\\xce\xed\xe3\xee\xe8\xed\xe3\xe8\\!_34_\xc2\xe5\xf1\xed\xe0_2024\\DreamCast\\\xcc\xee\xe9 \xf1\xee\xf1\xe5\xe4-\xb8\xea\xe0\xe9\\[DC] Tonari no Youkai-san - 01_Telegram_HEVC.mkv" -i "G:\\\xc0\xed\xe8\xec\xe5\\\xce\xed\xe3\xee\xe8\xed\xe3\xe8\\!_34_\xc2\xe5\xf1\xed\xe0_2024\\DreamCast\\\xcc\xee\xe9 \xf1\xee\xf1\xe5\xe4-\xb8\xea\xe0\xe9\\[DC] Tonari no Youkai-san - 01_Telegram.mp4" -lavfi "[0:v]settb=AVTB,setpts=PTS-STARTPTS,format=pix_fmts=yuv420p10,fps=24000/1001,scale=1920:1080:flags=bicubic[main];[1:v]settb=AVTB,setpts=PTS-STARTPTS,format=pix_fmts=yuv420p,fps=24000/1001,scale=1920:1080:flags=bicubic[ref];[main][ref]psnr=eof_action=endall:stats_file='D\\:/Convert/FFMetrics/logs/psnr_logfile-6.txt'" -f null -
Input #0, matroska,webm, from 'G:\Аниме\Онгоинги\!_34_Весна_2024\DreamCast\Мой сосед-ёкай\[DC] Tonari no Youkai-san - 01_Telegram_HEVC.mkv':
  Metadata:
    COMPATIBLE_BRANDS: isomiso2avc1mp41
    MAJOR_BRAND     : isom
    MINOR_VERSION   : 512
    ENCODER         : Lavf61.7.100
  Duration: 00:23:46.69, start: -0.021000, bitrate: 962 kb/s
  Stream #0:0: Video: hevc (Main 10), yuv420p10le(tv, bt709, progressive), 1920x1080 [SAR 1:1 DAR 16:9], 23.98 fps, 23.98 tbr, 1k tbn (default)
      Metadata:
        HANDLER_NAME    : VideoHandler
        VENDOR_ID       : [0][0][0][0]
        ENCODER         : Lavc61.19.100 libx265
        BPS             : 765053
        DURATION        : 00:23:46.508708333
        NUMBER_OF_FRAMES: 34202
        NUMBER_OF_BYTES : 136419284
        _STATISTICS_WRITING_APP: mkvpropedit v66.0.0 ('Josie') 64-bit
        _STATISTICS_WRITING_DATE_UTC: 2025-05-26 12:33:23
        _STATISTICS_TAGS: BPS DURATION NUMBER_OF_FRAMES NUMBER_OF_BYTES
  Stream #0:1: Audio: aac (LC), 48000 Hz, stereo, fltp (default)
      Metadata:
        HANDLER_NAME    : SoundHandler
        VENDOR_ID       : [0][0][0][0]
        ENCODER         : Lavc61.19.100 aac
        BPS             : 193468
        DURATION        : 00:23:46.688000000
        NUMBER_OF_FRAMES: 66877
        NUMBER_OF_BYTES : 34502434
        _STATISTICS_WRITING_APP: mkvpropedit v66.0.0 ('Josie') 64-bit
        _STATISTICS_WRITING_DATE_UTC: 2025-05-26 12:33:23
        _STATISTICS_TAGS: BPS DURATION NUMBER_OF_FRAMES NUMBER_OF_BYTES
Input #1, mov,mp4,m4a,3gp,3g2,mj2, from 'G:\Аниме\Онгоинги\!_34_Весна_2024\DreamCast\Мой сосед-ёкай\[DC] Tonari no Youkai-san - 01_Telegram.mp4':
  Metadata:
    major_brand     : isom
    minor_version   : 512
    compatible_brands: isomiso2avc1mp41
    encoder         : Lavf60.16.100
  Duration: 00:23:46.63, start: 0.000000, bitrate: 3609 kb/s
  Stream #1:0[0x1](und): Video: h264 (High) (avc1 / 0x31637661), yuv420p(tv, bt709, progressive), 1920x1080 [SAR 1:1 DAR 16:9], 3461 kb/s, 23.98 fps, 23.98 tbr, 24k tbn (default)
      Metadata:
        handler_name    : VideoHandler
        vendor_id       : [0][0][0][0]
        encoder         : Lavc60.31.102 h264_qsv
  Stream #1:1[0x2](und): Audio: aac (HE-AACv2) (mp4a / 0x6134706D), 48000 Hz, stereo, fltp, 144 kb/s (default)
      Metadata:
        handler_name    : SoundHandler
        vendor_id       : [0][0][0][0]
Stream mapping:
  Stream #0:0 (hevc) -> settb:default
  Stream #1:0 (h264) -> settb:default
  psnr:default -> Stream #0:0 (wrapped_avframe)
  Stream #0:1 -> #0:1 (aac (native) -> pcm_s16le (native))
Output #0, null, to 'pipe:':
  Metadata:
    COMPATIBLE_BRANDS: isomiso2avc1mp41
    MAJOR_BRAND     : isom
    MINOR_VERSION   : 512
    encoder         : Lavf61.7.100
  Stream #0:0: Video: wrapped_avframe, yuv420p10le(tv, bt709, progressive), 1920x1080 [SAR 1:1 DAR 16:9], q=2-31, 200 kb/s, 23.98 fps, 23.98 tbn
      Metadata:
        encoder         : Lavc61.19.100 wrapped_avframe
  Stream #0:1: Audio: pcm_s16le, 48000 Hz, stereo, s16, 1536 kb/s (default)
      Metadata:
        HANDLER_NAME    : SoundHandler
        VENDOR_ID       : [0][0][0][0]
        _STATISTICS_TAGS: BPS DURATION NUMBER_OF_FRAMES NUMBER_OF_BYTES
        BPS             : 193468
        DURATION        : 00:23:46.688000000
        NUMBER_OF_FRAMES: 66877
        NUMBER_OF_BYTES : 34502434
        _STATISTICS_WRITING_APP: mkvpropedit v66.0.0 ('Josie') 64-bit
        _STATISTICS_WRITING_DATE_UTC: 2025-05-26 12:33:23
        encoder         : Lavc61.19.100 pcm_s16le
frame=  178 fps=0.0 q=-0.0 size=N/A time=00:00:07.42 bitrate=N/A speed=14.3x    frame=  410 fps=394 q=-0.0 size=N/A time=00:00:17.10 bitrate=N/A speed=16.4x    frame=  636 fps=411 q=-0.0 size=N/A time=00:00:26.52 bitrate=N/A speed=17.2x    frame=  840 fps=406 q=-0.0 size=N/A time=00:00:35.03 bitrate=N/A speed=16.9x    frame= 1072 fps=416 q=-0.0 size=N/A time=00:00:44.71 bitrate=N/A speed=17.3x    frame= 1349 fps=435 q=-0.0 size=N/A time=00:00:56.26 bitrate=N/A speed=18.1x    frame= 1617 fps=448 q=-0.0 size=N/A time=00:01:07.44 bitrate=N/A speed=18.7x    frame= 1873 fps=453 q=-0.0 size=N/A time=00:01:18.11 bitrate=N/A speed=18.9x    frame= 2113 fps=454 q=-0.0 size=N/A time=00:01:28.12 bitrate=N/A speed=18.9x    frame= 2388 fps=463 q=-0.0 size=N/A time=00:01:39.59 bitrate=N/A speed=19.3x    frame= 2674 fps=470 q=-0.0 size=N/A time=00:01:51.52 bitrate=N/A speed=19.6x    frame= 2950 fps=476 q=-0.0 size=N/A time=00:02:03.03 bitrate=N/A speed=19.9x    frame= 3194 fps=476 q=-0.0 size=N/A time=00:02:13.21 bitrate=N/A speed=19.8x    frame= 3427 fps=474 q=-0.0 size=N/A time=00:02:22.93 bitrate=N/A speed=19.8x    frame= 3639 fps=470 q=-0.0 size=N/A time=00:02:31.81 bitrate=N/A speed=19.6x    frame= 3910 fps=474 q=-0.0 size=N/A time=00:02:43.07 bitrate=N/A speed=19.8x    frame= 4187 fps=477 q=-0.0 size=N/A time=00:02:54.63 bitrate=N/A speed=19.9x    frame= 4436 fps=478 q=-0.0 size=N/A time=00:03:05.01 bitrate=N/A speed=19.9x    frame= 4686 fps=478 q=-0.0 size=N/A time=00:03:15.44 bitrate=N/A speed=19.9x    frame= 4966 fps=481 q=-0.0 size=N/A time=00:03:27.12 bitrate=N/A speed=20.1x    frame= 5218 fps=482 q=-0.0 size=N/A time=00:03:37.63 bitrate=N/A speed=20.1x    frame= 5460 fps=481 q=-0.0 size=N/A time=00:03:47.72 bitrate=N/A speed=20.1x    frame= 5742 fps=484 q=-0.0 size=N/A time=00:03:59.48 bitrate=N/A speed=20.2x    frame= 5972 fps=482 q=-0.0 size=N/A time=00:04:09.08 bitrate=N/A speed=20.1x    frame= 6166 fps=478 q=-0.0 size=N/A time=00:04:17.17 bitrate=N/A speed=19.9x    frame= 6370 fps=475 q=-0.0 size=N/A time=00:04:25.68 bitrate=N/A speed=19.8x    frame= 6570 fps=472 q=-0.0 size=N/A time=00:04:34.02 bitrate=N/A speed=19.7x    frame= 6767 fps=469 q=-0.0 size=N/A time=00:04:42.24 bitrate=N/A speed=19.5x    frame= 6993 fps=467 q=-0.0 size=N/A time=00:04:51.66 bitrate=N/A speed=19.5x    frame= 7192 fps=465 q=-0.0 size=N/A time=00:04:59.96 bitrate=N/A speed=19.4x    frame= 7410 fps=463 q=-0.0 size=N/A time=00:05:09.05 bitrate=N/A speed=19.3x    frame= 7616 fps=462 q=-0.0 size=N/A time=00:05:17.65 bitrate=N/A speed=19.2x    frame= 7855 fps=461 q=-0.0 size=N/A time=00:05:27.61 bitrate=N/A speed=19.2x    frame= 8070 fps=460 q=-0.0 size=N/A time=00:05:36.58 bitrate=N/A speed=19.2x    frame= 8280 fps=459 q=-0.0 size=N/A time=00:05:45.34 bitrate=N/A speed=19.1x    frame= 8474 fps=457 q=-0.0 size=N/A time=00:05:53.43 bitrate=N/A speed=  19x    frame= 8700 fps=456 q=-0.0 size=N/A time=00:06:02.86 bitrate=N/A speed=  19x    frame= 8887 fps=454 q=-0.0 size=N/A time=00:06:10.66 bitrate=N/A speed=18.9x    frame= 9140 fps=454 q=-0.0 size=N/A time=00:06:21.21 bitrate=N/A speed=  19x    frame= 9405 fps=456 q=-0.0 size=N/A time=00:06:32.26 bitrate=N/A speed=  19x    frame= 9671 fps=457 q=-0.0 size=N/A time=00:06:43.36 bitrate=N/A speed=19.1x    frame= 9910 fps=457 q=-0.0 size=N/A time=00:06:53.32 bitrate=N/A speed=19.1x    frame=10137 fps=457 q=-0.0 size=N/A time=00:07:02.79 bitrate=N/A speed=19.1x    frame=10384 fps=458 q=-0.0 size=N/A time=00:07:13.09 bitrate=N/A speed=19.1x    frame=10629 fps=458 q=-0.0 size=N/A time=00:07:23.31 bitrate=N/A speed=19.1x    frame=10887 fps=459 q=-0.0 size=N/A time=00:07:34.07 bitrate=N/A speed=19.1x    frame=11155 fps=460 q=-0.0 size=N/A time=00:07:45.25 bitrate=N/A speed=19.2x    frame=11411 fps=461 q=-0.0 size=N/A time=00:07:55.93 bitrate=N/A speed=19.2x    frame=11684 fps=462 q=-0.0 size=N/A time=00:08:07.32 bitrate=N/A speed=19.3x    frame=11941 fps=463 q=-0.0 size=N/A time=00:08:18.03 bitrate=N/A speed=19.3x    frame=12211 fps=464 q=-0.0 size=N/A time=00:08:29.30 bitrate=N/A speed=19.4x    frame=12481 fps=466 q=-0.0 size=N/A time=00:08:40.56 bitrate=N/A speed=19.4x    frame=12753 fps=467 q=-0.0 size=N/A time=00:08:51.90 bitrate=N/A speed=19.5x    frame=13029 fps=468 q=-0.0 size=N/A time=00:09:03.41 bitrate=N/A speed=19.5x    frame=13270 fps=468 q=-0.0 size=N/A time=00:09:13.46 bitrate=N/A speed=19.5x    frame=13500 fps=467 q=-0.0 size=N/A time=00:09:23.06 bitrate=N/A speed=19.5x    frame=13724 fps=467 q=-0.0 size=N/A time=00:09:32.40 bitrate=N/A speed=19.5x    frame=13996 fps=468 q=-0.0 size=N/A time=00:09:43.74 bitrate=N/A speed=19.5x    frame=14254 fps=469 q=-0.0 size=N/A time=00:09:54.51 bitrate=N/A speed=19.5x    frame=14521 fps=469 q=-0.0 size=N/A time=00:10:05.64 bitrate=N/A speed=19.6x    frame=14789 fps=470 q=-0.0 size=N/A time=00:10:16.82 bitrate=N/A speed=19.6x    frame=15066 fps=471 q=-0.0 size=N/A time=00:10:28.37 bitrate=N/A speed=19.7x    frame=15323 fps=472 q=-0.0 size=N/A time=00:10:39.09 bitrate=N/A speed=19.7x    frame=15583 fps=472 q=-0.0 size=N/A time=00:10:49.94 bitrate=N/A speed=19.7x    frame=15852 fps=473 q=-0.0 size=N/A time=00:11:01.16 bitrate=N/A speed=19.7x    frame=16119 fps=474 q=-0.0 size=N/A time=00:11:12.29 bitrate=N/A speed=19.8x    frame=16399 fps=475 q=-0.0 size=N/A time=00:11:23.97 bitrate=N/A speed=19.8x    frame=16652 fps=475 q=-0.0 size=N/A time=00:11:34.52 bitrate=N/A speed=19.8x    frame=16900 fps=475 q=-0.0 size=N/A time=00:11:44.87 bitrate=N/A speed=19.8x    frame=17110 fps=474 q=-0.0 size=N/A time=00:11:53.62 bitrate=N/A speed=19.8x    frame=17359 fps=474 q=-0.0 size=N/A time=00:12:04.01 bitrate=N/A speed=19.8x    frame=17586 fps=474 q=-0.0 size=N/A time=00:12:13.48 bitrate=N/A speed=19.8x    frame=17845 fps=474 q=-0.0 size=N/A time=00:12:24.28 bitrate=N/A speed=19.8x    frame=18091 fps=474 q=-0.0 size=N/A time=00:12:34.54 bitrate=N/A speed=19.8x    frame=18368 fps=475 q=-0.0 size=N/A time=00:12:46.09 bitrate=N/A speed=19.8x    frame=18625 fps=475 q=-0.0 size=N/A time=00:12:56.81 bitrate=N/A speed=19.8x    frame=18860 fps=475 q=-0.0 size=N/A time=00:13:06.61 bitrate=N/A speed=19.8x    frame=19108 fps=475 q=-0.0 size=N/A time=00:13:16.96 bitrate=N/A speed=19.8x    frame=19367 fps=475 q=-0.0 size=N/A time=00:13:27.76 bitrate=N/A speed=19.8x    frame=19626 fps=476 q=-0.0 size=N/A time=00:13:38.56 bitrate=N/A speed=19.8x    frame=19870 fps=476 q=-0.0 size=N/A time=00:13:48.74 bitrate=N/A speed=19.8x    frame=20111 fps=476 q=-0.0 size=N/A time=00:13:58.79 bitrate=N/A speed=19.8x    frame=20330 fps=475 q=-0.0 size=N/A time=00:14:07.93 bitrate=N/A speed=19.8x    frame=20592 fps=475 q=-0.0 size=N/A time=00:14:18.85 bitrate=N/A speed=19.8x    frame=20857 fps=476 q=-0.0 size=N/A time=00:14:29.91 bitrate=N/A speed=19.8x    frame=21113 fps=476 q=-0.0 size=N/A time=00:14:40.58 bitrate=N/A speed=19.9x    frame=21365 fps=476 q=-0.0 size=N/A time=00:14:51.09 bitrate=N/A speed=19.9x    frame=21629 fps=477 q=-0.0 size=N/A time=00:15:02.10 bitrate=N/A speed=19.9x    frame=21900 fps=477 q=-0.0 size=N/A time=00:15:13.41 bitrate=N/A speed=19.9x    frame=22175 fps=478 q=-0.0 size=N/A time=00:15:24.88 bitrate=N/A speed=19.9x    frame=22423 fps=478 q=-0.0 size=N/A time=00:15:35.22 bitrate=N/A speed=19.9x    frame=22701 fps=478 q=-0.0 size=N/A time=00:15:46.82 bitrate=N/A speed=  20x    frame=22965 fps=479 q=-0.0 size=N/A time=00:15:57.83 bitrate=N/A speed=  20x    frame=23248 fps=480 q=-0.0 size=N/A time=00:16:09.63 bitrate=N/A speed=  20x    frame=23539 fps=480 q=-0.0 size=N/A time=00:16:21.77 bitrate=N/A speed=  20x    frame=23800 fps=481 q=-0.0 size=N/A time=00:16:32.65 bitrate=N/A speed=  20x    frame=24066 fps=481 q=-0.0 size=N/A time=00:16:43.75 bitrate=N/A speed=20.1x    frame=24336 fps=481 q=-0.0 size=N/A time=00:16:55.01 bitrate=N/A speed=20.1x    frame=24591 fps=482 q=-0.0 size=N/A time=00:17:05.64 bitrate=N/A speed=20.1x    frame=24847 fps=482 q=-0.0 size=N/A time=00:17:16.32 bitrate=N/A speed=20.1x    frame=25107 fps=482 q=-0.0 size=N/A time=00:17:27.17 bitrate=N/A speed=20.1x    frame=25382 fps=482 q=-0.0 size=N/A time=00:17:38.64 bitrate=N/A speed=20.1x    frame=25655 fps=483 q=-0.0 size=N/A time=00:17:50.02 bitrate=N/A speed=20.1x    frame=25915 fps=483 q=-0.0 size=N/A time=00:18:00.87 bitrate=N/A speed=20.1x    frame=26194 fps=484 q=-0.0 size=N/A time=00:18:12.50 bitrate=N/A speed=20.2x    frame=26437 fps=484 q=-0.0 size=N/A time=00:18:22.64 bitrate=N/A speed=20.2x    frame=26685 fps=483 q=-0.0 size=N/A time=00:18:32.98 bitrate=N/A speed=20.2x    frame=26942 fps=484 q=-0.0 size=N/A time=00:18:43.70 bitrate=N/A speed=20.2x    frame=27210 fps=484 q=-0.0 size=N/A time=00:18:54.88 bitrate=N/A speed=20.2x    frame=27468 fps=484 q=-0.0 size=N/A time=00:19:05.64 bitrate=N/A speed=20.2x    frame=27588 fps=482 q=-0.0 size=N/A time=00:19:10.64 bitrate=N/A speed=20.1x    frame=27755 fps=480 q=-0.0 size=N/A time=00:19:17.61 bitrate=N/A speed=  20x    frame=28009 fps=481 q=-0.0 size=N/A time=00:19:28.20 bitrate=N/A speed=  20x    frame=28282 fps=481 q=-0.0 size=N/A time=00:19:39.59 bitrate=N/A speed=20.1x    frame=28545 fps=481 q=-0.0 size=N/A time=00:19:50.56 bitrate=N/A speed=20.1x    frame=28785 fps=481 q=-0.0 size=N/A time=00:20:00.57 bitrate=N/A speed=20.1x    frame=29065 fps=482 q=-0.0 size=N/A time=00:20:12.25 bitrate=N/A speed=20.1x    frame=29343 fps=482 q=-0.0 size=N/A time=00:20:23.84 bitrate=N/A speed=20.1x    frame=29587 fps=482 q=-0.0 size=N/A time=00:20:34.02 bitrate=N/A speed=20.1x    frame=29859 fps=482 q=-0.0 size=N/A time=00:20:45.36 bitrate=N/A speed=20.1x    frame=30136 fps=483 q=-0.0 size=N/A time=00:20:56.92 bitrate=N/A speed=20.1x    frame=30374 fps=483 q=-0.0 size=N/A time=00:21:06.84 bitrate=N/A speed=20.1x    frame=30642 fps=483 q=-0.0 size=N/A time=00:21:18.02 bitrate=N/A speed=20.1x    frame=30905 fps=483 q=-0.0 size=N/A time=00:21:28.99 bitrate=N/A speed=20.2x    frame=31187 fps=484 q=-0.0 size=N/A time=00:21:40.75 bitrate=N/A speed=20.2x    frame=31451 fps=484 q=-0.0 size=N/A time=00:21:51.76 bitrate=N/A speed=20.2x    frame=31654 fps=483 q=-0.0 size=N/A time=00:22:00.23 bitrate=N/A speed=20.2x    frame=31886 fps=483 q=-0.0 size=N/A time=00:22:09.91 bitrate=N/A speed=20.1x    frame=32146 fps=483 q=-0.0 size=N/A time=00:22:20.75 bitrate=N/A speed=20.2x    frame=32419 fps=483 q=-0.0 size=N/A time=00:22:32.14 bitrate=N/A speed=20.2x    frame=32699 fps=484 q=-0.0 size=N/A time=00:22:43.82 bitrate=N/A speed=20.2x    frame=32976 fps=484 q=-0.0 size=N/A time=00:22:55.37 bitrate=N/A speed=20.2x    frame=33263 fps=485 q=-0.0 size=N/A time=00:23:07.34 bitrate=N/A speed=20.2x    frame=33532 fps=485 q=-0.0 size=N/A time=00:23:18.56 bitrate=N/A speed=20.2x    frame=33757 fps=485 q=-0.0 size=N/A time=00:23:27.94 bitrate=N/A speed=20.2x    frame=33994 fps=485 q=-0.0 size=N/A time=00:23:37.83 bitrate=N/A speed=20.2x    [Parsed_psnr_10 @ 0000026caa14b000] PSNR y:48.600653 u:49.981090 v:50.605986 average:49.092228 min:42.568564 max:inf
[out#0/null @ 0000026c9c554e80] video:14696KiB audio:267508KiB subtitle:0KiB other streams:0KiB global headers:0KiB muxing overhead: unknown
frame=34202 fps=485 q=-0.0 Lsize=N/A time=00:23:46.50 bitrate=N/A speed=20.2x    
